mtllib ./Booh.mtl
g Cube
v -5 6.819354 3.733601
v -5 16.81936 3.733601
v 5 16.81936 3.733601
v 5 6.819354 3.733601
v -5 16.81936 3.733601
v -5 16.81936 -3.733601
v 5 16.81936 -3.733601
v 5 16.81936 3.733601
v -5 16.81936 -3.733601
v -5 6.819354 -3.733601
v 5 6.819354 -3.733601
v 5 16.81936 -3.733601
v -5 6.819354 -3.733601
v -5 6.819354 3.733601
v 5 6.819354 3.733601
v 5 6.819354 -3.733601
v 5 6.819354 3.733601
v 5 16.81936 3.733601
v 5 16.81936 -3.733601
v 5 6.819354 -3.733601
v -5 6.819354 -3.733601
v -5 16.81936 -3.733601
v -5 16.81936 3.733601
v -5 6.819354 3.733601

vn 0 0 1
vn 0 0 1
vn 0 0 1
vn 0 0 1
vn 0 1 0
vn 0 1 0
vn 0 1 0
vn 0 1 0
vn 0 0 -1
vn 0 0 -1
vn 0 0 -1
vn 0 0 -1
vn 0 -1 0
vn 0 -1 0
vn 0 -1 0
vn 0 -1 0
vn 1 0 0
vn 1 0 0
vn 1 0 0
vn 1 0 0
vn -1 0 0
vn -1 0 0
vn -1 0 0
vn -1 0 0

vt 0 0
vt 0 1
vt 1 1
vt 1 0
vt 0 0
vt 0 1
vt 1 1
vt 1 0
vt 0 0
vt 0 1
vt 1 1
vt 1 0
vt 0 0
vt 0 1
vt 1 1
vt 1 0
vt 0 0
vt 0 1
vt 1 1
vt 1 0
vt 0 0
vt 0 1
vt 1 1
vt 1 0

usemtl Standard(Clone)
usemap Standard(Clone)
f 2/2/2 1/1/1 3/3/3
f 1/1/1 4/4/4 3/3/3
f 6/6/6 5/5/5 7/7/7
f 5/5/5 8/8/8 7/7/7
f 10/10/10 9/9/9 11/11/11
f 9/9/9 12/12/12 11/11/11
f 14/14/14 13/13/13 15/15/15
f 13/13/13 16/16/16 15/15/15
f 18/18/18 17/17/17 19/19/19
f 17/17/17 20/20/20 19/19/19
f 22/22/22 21/21/21 23/23/23
f 21/21/21 24/24/24 23/23/23
g Pyramid
v -1.520121 8.488848 3.541575
v -4.923333 14.56105 0
v -1.520121 8.488848 -3.541575
v -1.520121 8.488848 -3.541575
v -4.923333 14.56105 0
v -8.326546 8.488848 -3.541575
v -8.326546 8.488848 -3.541575
v -4.923333 14.56105 0
v -8.326546 8.488848 3.541575
v -8.326546 8.488848 3.541575
v -4.923333 14.56105 0
v -1.520121 8.488848 3.541575
v -8.326546 8.488848 -3.541575
v -8.326546 8.488848 3.541575
v -1.520121 8.488848 3.541575
v -1.520121 8.488848 -3.541575

vn 0.8944271 0.4472136 0
vn 0.8944271 0.4472136 0
vn 0.8944271 0.4472136 0
vn 0 0.4472136 -0.8944271
vn 0 0.4472136 -0.8944271
vn 0 0.4472136 -0.8944271
vn -0.8944271 0.4472136 0
vn -0.8944271 0.4472136 0
vn -0.8944271 0.4472136 0
vn 0 0.4472136 0.8944271
vn 0 0.4472136 0.8944271
vn 0 0.4472136 0.8944271
vn 0 -1 0
vn 0 -1 0
vn 0 -1 0
vn 0 -1 0

vt 0 0
vt 0.5 1
vt 1 0
vt 0 0
vt 0.5 1
vt 1 0
vt 0 0
vt 0.5 1
vt 1 0
vt 0 0
vt 0.5 1
vt 1 0
vt 0 0
vt 0 1
vt 1 1
vt 1 0

usemtl Standard(Clone)
usemap Standard(Clone)
f 26/26/26 25/25/25 27/27/27
f 29/29/29 28/28/28 30/30/30
f 32/32/32 31/31/31 33/33/33
f 35/35/35 34/34/34 36/36/36
f 38/38/38 37/37/37 39/39/39
f 37/37/37 40/40/40 39/39/39
g Pyramid (Copy)
v 8.28501 8.48885 3.541575
v 4.881798 14.56106 0
v 8.28501 8.48885 -3.541575
v 8.28501 8.48885 -3.541575
v 4.881798 14.56106 0
v 1.478586 8.48885 -3.541575
v 1.478586 8.48885 -3.541575
v 4.881798 14.56106 0
v 1.478586 8.48885 3.541575
v 1.478586 8.48885 3.541575
v 4.881798 14.56106 0
v 8.28501 8.48885 3.541575
v 1.478586 8.48885 -3.541575
v 1.478586 8.48885 3.541575
v 8.28501 8.48885 3.541575
v 8.28501 8.48885 -3.541575

vn 0.8944271 0.4472136 0
vn 0.8944271 0.4472136 0
vn 0.8944271 0.4472136 0
vn 0 0.4472136 -0.8944271
vn 0 0.4472136 -0.8944271
vn 0 0.4472136 -0.8944271
vn -0.8944271 0.4472136 0
vn -0.8944271 0.4472136 0
vn -0.8944271 0.4472136 0
vn 0 0.4472136 0.8944271
vn 0 0.4472136 0.8944271
vn 0 0.4472136 0.8944271
vn 0 -1 0
vn 0 -1 0
vn 0 -1 0
vn 0 -1 0

vt 0 0
vt 0.5 1
vt 1 0
vt 0 0
vt 0.5 1
vt 1 0
vt 0 0
vt 0.5 1
vt 1 0
vt 0 0
vt 0.5 1
vt 1 0
vt 0 0
vt 0 1
vt 1 1
vt 1 0

usemtl Standard(Clone)
usemap Standard(Clone)
f 42/42/42 41/41/41 43/43/43
f 45/45/45 44/44/44 46/46/46
f 48/48/48 47/47/47 49/49/49
f 51/51/51 50/50/50 52/52/52
f 54/54/54 53/53/53 55/55/55
f 53/53/53 56/56/56 55/55/55
g Cube
v -5 -31.55023 5
v -5 -21.55023 5
v 5 -21.55023 5
v 5 -31.55023 5
v -5 -21.55023 5
v -5 -21.55023 -5
v 5 -21.55023 -5
v 5 -21.55023 5
v -5 -21.55023 -5
v -5 -31.55023 -5
v 5 -31.55023 -5
v 5 -21.55023 -5
v -5 -31.55023 -5
v -5 -31.55023 5
v 5 -31.55023 5
v 5 -31.55023 -5
v 5 -31.55023 5
v 5 -21.55023 5
v 5 -21.55023 -5
v 5 -31.55023 -5
v -5 -31.55023 -5
v -5 -21.55023 -5
v -5 -21.55023 5
v -5 -31.55023 5

vn 0 0 1
vn 0 0 1
vn 0 0 1
vn 0 0 1
vn 0 1 0
vn 0 1 0
vn 0 1 0
vn 0 1 0
vn 0 0 -1
vn 0 0 -1
vn 0 0 -1
vn 0 0 -1
vn 0 -1 0
vn 0 -1 0
vn 0 -1 0
vn 0 -1 0
vn 1 0 0
vn 1 0 0
vn 1 0 0
vn 1 0 0
vn -1 0 0
vn -1 0 0
vn -1 0 0
vn -1 0 0

vt 0 0
vt 0 1
vt 1 1
vt 1 0
vt 0 0
vt 0 1
vt 1 1
vt 1 0
vt 0 0
vt 0 1
vt 1 1
vt 1 0
vt 0 0
vt 0 1
vt 1 1
vt 1 0
vt 0 0
vt 0 1
vt 1 1
vt 1 0
vt 0 0
vt 0 1
vt 1 1
vt 1 0

usemtl Standard(Clone)
usemap Standard(Clone)
f 58/58/58 57/57/57 59/59/59
f 57/57/57 60/60/60 59/59/59
f 62/62/62 61/61/61 63/63/63
f 61/61/61 64/64/64 63/63/63
f 66/66/66 65/65/65 67/67/67
f 65/65/65 68/68/68 67/67/67
f 70/70/70 69/69/69 71/71/71
f 69/69/69 72/72/72 71/71/71
f 74/74/74 73/73/73 75/75/75
f 73/73/73 76/76/76 75/75/75
f 78/78/78 77/77/77 79/79/79
f 77/77/77 80/80/80 79/79/79
